<?xml version="1.0" encoding="iso-8859-1"?>
<!-- Generator: Adobe Illustrator 19.0.0, SVG Export Plug-In . SVG Version: 6.00 Build 0)  -->
<svg version="1.1" id="Capa_1" xmlns="http://www.w3.org/2000/svg" xmlns:xlink="http://www.w3.org/1999/xlink" x="0px" y="0px"
	 viewBox="0 0 464 464" style="enable-background:new 0 0 464 464;" xml:space="preserve">
<path style="fill:#FDBD40;" d="M44,0h296c22.091,0,40,17.909,40,40v384c0,22.091-17.909,40-40,40H44l0,0V0L44,0z"/>
<g>
	<path style="fill:#2D75BB;" d="M76,48H28c-4.418,0-8-3.582-8-8s3.582-8,8-8h48c4.418,0,8,3.582,8,8S80.418,48,76,48z"/>
	<path style="fill:#2D75BB;" d="M76,80H28c-4.418,0-8-3.582-8-8s3.582-8,8-8h48c4.418,0,8,3.582,8,8S80.418,80,76,80z"/>
	<path style="fill:#2D75BB;" d="M76,112H28c-4.418,0-8-3.582-8-8c0-4.418,3.582-8,8-8h48c4.418,0,8,3.582,8,8
		C84,108.418,80.418,112,76,112z"/>
	<path style="fill:#2D75BB;" d="M76,144H28c-4.418,0-8-3.582-8-8s3.582-8,8-8h48c4.418,0,8,3.582,8,8S80.418,144,76,144z"/>
	<path style="fill:#2D75BB;" d="M76,176H28c-4.418,0-8-3.582-8-8s3.582-8,8-8h48c4.418,0,8,3.582,8,8S80.418,176,76,176z"/>
	<path style="fill:#2D75BB;" d="M76,208H28c-4.418,0-8-3.582-8-8s3.582-8,8-8h48c4.418,0,8,3.582,8,8S80.418,208,76,208z"/>
	<path style="fill:#2D75BB;" d="M76,240H28c-4.418,0-8-3.582-8-8s3.582-8,8-8h48c4.418,0,8,3.582,8,8S80.418,240,76,240z"/>
	<path style="fill:#2D75BB;" d="M76,272H28c-4.418,0-8-3.582-8-8s3.582-8,8-8h48c4.418,0,8,3.582,8,8S80.418,272,76,272z"/>
	<path style="fill:#2D75BB;" d="M76,304H28c-4.418,0-8-3.582-8-8s3.582-8,8-8h48c4.418,0,8,3.582,8,8S80.418,304,76,304z"/>
	<path style="fill:#2D75BB;" d="M76,336H28c-4.418,0-8-3.582-8-8s3.582-8,8-8h48c4.418,0,8,3.582,8,8S80.418,336,76,336z"/>
	<path style="fill:#2D75BB;" d="M76,368H28c-4.418,0-8-3.582-8-8s3.582-8,8-8h48c4.418,0,8,3.582,8,8S80.418,368,76,368z"/>
	<path style="fill:#2D75BB;" d="M76,400H28c-4.418,0-8-3.582-8-8s3.582-8,8-8h48c4.418,0,8,3.582,8,8S80.418,400,76,400z"/>
	<path style="fill:#2D75BB;" d="M76,432H28c-4.418,0-8-3.582-8-8s3.582-8,8-8h48c4.418,0,8,3.582,8,8S80.418,432,76,432z"/>
	<path style="fill:#2D75BB;" d="M132,48h160v80H132V48z"/>
</g>
<g>
	<path style="fill:#FFD782;" d="M260,384H132c-4.418,0-8-3.582-8-8s3.582-8,8-8h128c4.418,0,8,3.582,8,8S264.418,384,260,384z"/>
	<path style="fill:#FFD782;" d="M260,352H132c-4.418,0-8-3.582-8-8s3.582-8,8-8h128c4.418,0,8,3.582,8,8S264.418,352,260,352z"/>
</g>
<path style="fill:#D3843D;" d="M348,464V0h40c13.255,0,24,10.745,24,24v416c0,13.255-10.745,24-24,24l0,0H348z"/>
<path style="fill:#7D8D9C;" d="M444,120h-96V72h96l-16,24L444,120z"/>
<g>
</g>
<g>
</g>
<g>
</g>
<g>
</g>
<g>
</g>
<g>
</g>
<g>
</g>
<g>
</g>
<g>
</g>
<g>
</g>
<g>
</g>
<g>
</g>
<g>
</g>
<g>
</g>
<g>
</g>
</svg>
